<svg id="Layer_1" data-name="Layer 1" xmlns="http://www.w3.org/2000/svg" viewBox="0 0 32 32"><title>action_openstage_6e4dbc48e53844e1942a03782cb6c6b4_32</title><rect x="2" y="5" width="28" height="21" fill="#fff"/><rect x="4" y="8" width="24" height="4" fill="#7da7b5"/><rect x="4" y="14" width="7" height="2" fill="#667f94"/><rect x="12" y="14" width="16" height="2" fill="#667f94"/><polygon points="19 22 9 22 9 19 0 25 9 31 9 28 19 28 19 22" fill="#75ad15"/><path d="M31,3H1A1,1,0,0,0,0,4V22.33L2,21V5H30V26H21v2H31a1,1,0,0,0,1-1V4A1,1,0,0,0,31,3Z" fill="#9da2a5"/><rect x="12" y="17" width="16" height="2" fill="#667f94"/></svg>